<?xml version="1.0" encoding="UTF-8"?>
<svg width="250px" height="45px" viewBox="0 0 250 45" version="1.1" xmlns="http://www.w3.org/2000/svg" xmlns:xlink="http://www.w3.org/1999/xlink">
    <!-- Generator: sketchtool 56.2 (101010) - https://sketch.com -->
    <title>2C62A5EC-CC2B-495D-8A1E-9210FAB7F648</title>
    <desc>Created with sketchtool.</desc>
    <g id="v2" stroke="none" stroke-width="1" fill="none" fill-rule="evenodd">
        <g id="Logo" transform="translate(-22.000000, -70.000000)">
            <g id="netfirms-logo" transform="translate(22.000000, 70.000000)">
                <path d="M183.988764,15.9586804 L192.224297,14.9310282 C192.224297,14.9310282 192.181103,17.0279258 192.249077,18.2768725 C194.584744,16.1039121 197.058404,14.7515568 200.07472,14.8119934 C203.140823,14.873579 205.50036,16.1905456 206.784363,18.6280023 C209.055693,17.4121464 211.110598,15.8915797 213.411027,15.1679489 C218.20967,13.6584124 222.736417,16.3309515 223.081515,21.2580289 C223.531416,27.6813146 223.191547,40.7303371 223.191547,40.7303371 L215.019214,40.7303371 C215.019214,40.7303371 215.009438,30.4149797 215.022624,26.4739612 C215.02808,24.7665695 215.112649,22.9585267 213.1555,22.2459262 C211.158339,21.5186187 209.417387,22.2918856 207.753958,23.6228698 L207.753958,40.7259709 L199.450678,40.7259709 C199.450678,40.7259709 199.489326,30.40326 199.431354,26.9491814 C199.402937,25.2672971 199.733486,23.3245933 197.800662,22.3881706 C195.851014,21.4439347 194.069369,22.1916941 192.200427,23.3717017 L192.200427,40.6965569 L183.988764,40.6965569 L183.988764,15.9586804 Z" id="Fill-1" fill="#000000"></path>
                <path d="M75.7935889,40.7275635 L67.4062732,40.7275635 C67.4062732,40.7275635 67.4178916,30.4213058 67.4008057,26.7292567 C67.393288,25.114592 67.6379569,23.3455333 65.9113777,22.3814957 C64.0515292,21.3432658 61.0405518,22.0109964 59.4347125,23.7950785 L59.4347125,40.7303371 L51.2640449,40.7303371 L51.2640449,15.8486443 L59.3631798,14.9296768 L59.3631798,18.7756576 C59.3631798,18.7756576 64.2545087,13.2075372 70.6821946,15.1638101 C76.4328264,16.9141474 75.8241156,22.917483 75.8241156,25.9237734 C75.8241156,28.9302949 75.7935889,40.7275635 75.7935889,40.7275635" id="Fill-3" fill="#000000"></path>
                <path d="M88.514691,25.5978732 L96.6666272,25.5978732 C96.8621151,22.461514 95.6679985,20.7613634 93.3077898,20.6353084 C90.7504983,20.4992417 88.7719239,22.524314 88.514691,25.5978732 M103.866186,29.9563294 L88.514691,29.9563294 C88.4807426,33.0621987 90.5600229,35.0110464 93.828863,35.2515522 C97.0377807,35.4879623 99.9325053,34.4376551 102.964846,32.9236292 C103.269698,35.0927319 103.555183,37.1250854 103.86368,39.3208098 C99.4075588,41.2535024 94.9015401,41.9791154 90.2052739,40.9947937 C83.9362188,39.6809996 80.6821885,35.8454217 80.1121294,29.2723555 C79.5944738,23.3027154 82.6999516,17.8327448 88.1385249,15.8088102 C91.7803413,14.4536045 95.6597962,14.2597437 99.2441965,16.0288377 C103.959146,18.3563057 105.82266,24.0007965 103.866186,29.9563294" id="Fill-5" fill="#000000"></path>
                <path d="M146.769663,4.68334887 C146.316733,6.86442355 145.854945,9.08880065 145.39202,11.3188754 C140.01365,9.99860736 138.571952,11.1356378 139.359696,16.0914862 L145.513317,16.0914862 L145.513317,22.775785 L139.489169,22.775785 L139.489169,40.7303371 L131.244439,40.7303371 L131.244439,22.908883 L127.106742,22.4744913 L127.106742,17.2446981 C127.106742,17.2446981 129.694165,16.3734078 131.046367,15.9182765 C131.38527,11.4278152 131.204007,6.67617196 136.17942,4.32735737 C138.767525,3.10554531 143.927608,3.28103408 146.769663,4.68334887" id="Fill-7" fill="#000000"></path>
                <path d="M227.52809,39.274881 C228.123994,37.1115985 228.644653,35.2219472 229.142715,33.4139292 C231.602041,34.0797651 233.880128,34.7905221 236.20597,35.2860225 C237.358175,35.5313785 241.570037,35.641515 241.717266,33.6494801 C241.864262,31.6572171 237.323931,31.0358463 235.978604,30.5978084 C234.43177,30.093871 232.827628,29.6179808 231.438273,28.8151013 C226.928459,26.2078522 226.678729,20.1423612 230.895949,17.0583098 C234.199745,14.6426026 238.031654,14.4823003 241.883131,14.9677676 C244.445192,15.2906524 246.952974,16.0264923 249.700469,16.6243764 C249.03957,18.9014438 248.496081,20.7744492 247.944672,22.6748177 C245.799604,22.0696368 243.846493,21.4129219 241.841665,20.9915299 C240.579504,20.7263357 236.386512,20.3272903 236.167765,22.2928742 C235.948553,24.2584581 241.289091,25.073651 243.137605,25.5609425 C248.287585,26.9186092 250.718258,30.2115324 249.81485,34.6416211 C249.235021,37.4855611 247.295421,39.2876504 244.681411,40.2608653 C238.922714,42.4052216 233.308917,41.3257466 227.52809,39.274881" id="Fill-9" fill="#000000"></path>
                <path d="M110.663227,9.83146067 L118.943385,9.83146067 L118.943385,15.6644867 L125.039285,15.6644867 L125.039285,22.3116524 L118.157238,22.3116524 C118.157238,22.3116524 118.069915,29.0985944 118.201715,32.4007525 C118.252014,33.6587394 119.299899,34.3842013 120.601839,34.3867219 C121.904477,34.3890133 123.207348,34.2302183 124.716303,34.1282503 C125.023217,36.0677039 125.345966,38.1086673 125.702247,40.3611282 C121.466694,41.6388212 117.291219,42.0783146 113.293652,39.9479861 C110.504181,38.4615452 109.970923,35.6559367 110.006784,32.8207689 C110.0487,29.4934052 110.286453,26.1685621 110.443403,22.7545829 C109.147518,22.5130677 106.741573,22.0650961 106.741573,22.0650961 L106.741573,16.7820097 C108.016035,16.3097491 110.663227,15.3287944 110.663227,15.3287944 L110.663227,9.83146067 Z" id="Fill-11" fill="#000000"></path>
                <path d="M162.219101,15.876926 L170.375,14.9908638 C170.375,14.9908638 170.46542,16.8808219 170.525473,18.1354028 C173.259138,14.2579851 176.615997,14.0944044 180.477528,15.7188904 C179.931611,18.1834605 179.399517,20.5847238 178.841589,23.1033587 C176.134891,22.2718234 173.588411,22.0135137 171.702742,24.3986038 C171.058926,25.2132728 170.53839,26.3814425 170.50825,27.4049773 C170.378626,31.7883862 170.452956,40.7303371 170.452956,40.7303371 L162.219101,40.7303371 L162.219101,15.876926 Z" id="Fill-13" fill="#000000"></path>
                <polygon id="Fill-15" fill="#000000" points="148.174157 16.2927165 156.601124 15.4494382 156.601124 40.7303371 148.174157 40.7303371"></polygon>
                <path d="M152.340173,12.6403578 C149.152498,12.6264168 147.472821,11.0713015 147.47191,8.13347437 C147.471227,5.29578983 149.314159,3.54062165 152.325601,3.51157796 C155.378028,3.48230192 157.345051,5.33482455 157.3027,8.19946163 C157.26035,11.0778073 155.498932,12.6542987 152.340173,12.6403578" id="Fill-17" fill="#000000"></path>
                <path d="M7.01919093,28.7921348 L2.81226975,28.7921348 C1.25895942,28.7921348 0,27.5629316 0,26.0468457 L0,2.74528913 C0,1.22897443 1.25895942,0 2.81226975,0 L7.01919093,0 C8.5722669,0 9.83146067,1.22897443 9.83146067,2.74528913 L9.83146067,26.0468457 C9.83146067,27.5629316 8.5722669,28.7921348 7.01919093,28.7921348" id="Fill-19" fill="#334776"></path>
                <path d="M21.0642018,44.9438202 L16.8571465,44.9438202 C15.3041076,44.9438202 14.0449438,43.7028489 14.0449438,42.1717324 L14.0449438,15.4125373 C14.0449438,13.8814208 15.3041076,12.6404494 16.8571465,12.6404494 L21.0642018,12.6404494 C22.6172407,12.6404494 23.8764045,13.8814208 23.8764045,15.4125373 L23.8764045,42.1717324 C23.8764045,43.7028489 22.6172407,44.9438202 21.0642018,44.9438202" id="Fill-21" fill="#C62232"></path>
                <path d="M35.1090786,28.7921348 L30.9021574,28.7921348 C29.3488471,28.7921348 28.0898876,27.5509414 28.0898876,26.0200668 L28.0898876,15.4125175 C28.0898876,13.8814119 29.3488471,12.6404494 30.9021574,12.6404494 L35.1090786,12.6404494 C36.6621545,12.6404494 37.9213483,13.8814119 37.9213483,15.4125175 L37.9213483,26.0200668 C37.9213483,27.5509414 36.6621545,28.7921348 35.1090786,28.7921348" id="Fill-23" fill="#46AE9B"></path>
            </g>
        </g>
    </g>
</svg>